<?xml version="1.0" encoding="UTF-8"?><svg id="border" xmlns="http://www.w3.org/2000/svg" width="30" height="30" viewBox="0 0 30 30"><path d="M25.0787,20c0-.9375,.3034-1.875,.9102-2.5,1.2137-1.2497,1.2137-3.7499,0-5-.6068-.6251-.9102-1.5625-.9102-2.5V5.9103h-5.0787c-.9375,0-1.875-.3035-2.5-.9103-1.2497-1.2137-3.7499-1.2137-5,0-.6251,.6068-1.5625,.9103-2.5,.9103H4.0804v4.0991c0,.9375,.3034,1.8749,.9102,2.5,1.2137,1.2501,1.2137,3.7503,0,5-.6068,.625-.9102,1.5625-.9102,2.5v5.9009h5.9196c.9375,0,1.8749-.3034,2.5-.9103,1.2501-1.2137,3.7503-1.2137,5,0,.625,.6068,1.5625,.9102,2.5,.9103h5.0787s0-5.9103,0-5.9103Z" fill="none" stroke="#ae4337" stroke-miterlimit="10" stroke-width=".8333"/></svg>