<?xml version="1.0" encoding="UTF-8"?><svg id="gear" xmlns="http://www.w3.org/2000/svg" width="160" height="160" viewBox="0 0 160 160"><circle id="background" cx="80" cy="80" r="80" fill="#fa7465"/><path id="gear-2" d="M139.3822,96.5036c1.7169-4.1449-.2697-8.9408-4.4146-10.6577l-6.5768-2.7242c-4.1449-1.7169-4.1449-4.5263,0-6.2431l6.5765-2.7241c4.1449-1.7169,6.1314-6.5128,4.4146-10.6577l-5.7228-13.8164c-1.7168-4.1449-6.5128-6.1314-10.6576-4.4146l-6.577,2.7243c-4.1449,1.7169-6.1314-.2697-4.4146-4.4146l2.7244-6.5772c1.7169-4.1449-.2697-8.9408-4.4146-10.6577l-13.8162-5.7229c-4.1449-1.7169-8.9408,.2697-10.6577,4.4146l-2.7243,6.577c-1.7169,4.1449-4.5263,4.1449-6.2431,0l-2.7241-6.5766c-1.7168-4.1449-6.5128-6.1314-10.6577-4.4146l-13.8166,5.723c-4.1449,1.7169-6.1314,6.5128-4.4146,10.6577l2.7241,6.5766c1.7169,4.1449-.2697,6.1314-4.4146,4.4146l-6.5769-2.7242c-4.1449-1.7169-8.9408,.2697-10.6577,4.4146l-5.7229,13.8162c-1.7169,4.1449,.2697,8.9408,4.4146,10.6577l6.5772,2.7244c4.1449,1.7169,4.1449,4.5263,0,6.2431l-6.577,2.7243c-4.1449,1.7169-6.1314,6.5128-4.4146,10.6577l5.723,13.8166c1.7169,4.1449,6.5128,6.1314,10.6577,4.4145l6.5766-2.7242c4.1449-1.7169,6.1314,.2697,4.4145,4.4145l-2.7242,6.5767c-1.7169,4.1449,.2697,8.9408,4.4146,10.6577l13.8162,5.7229c4.1449,1.7169,8.9408-.2697,10.6577-4.4146l2.7243-6.5769c1.7169-4.1449,4.5263-4.1449,6.2431,0l2.7243,6.577c1.7169,4.1449,6.5128,6.1314,10.6577,4.4145l13.8163-5.723c4.1449-1.7169,6.1314-6.5129,4.4146-10.6577l-2.7243-6.577c-1.7168-4.1449,.2697-6.1314,4.4146-4.4146l6.5772,2.7243c4.1449,1.7169,8.9408-.2697,10.6577-4.4146l5.7229-13.8162Zm-68.3859,5.2331c-12.0048-4.9725-17.7055-18.7354-12.733-30.7402s18.7354-17.7055,30.7402-12.733c12.0048,4.9726,17.7055,18.7354,12.733,30.7402-4.9725,12.0048-18.7354,17.7055-30.7402,12.733Z" fill="#ae4337"/></svg>