<?xml version="1.0" encoding="UTF-8"?><svg id="pomorph" xmlns="http://www.w3.org/2000/svg" width="160" height="160" viewBox="0 0 160 160"><path id="pomorph-2" d="M105.1488,24.0454c4.8649-5.4391,11.3732-9.3233,18.9748-10.1294-12.1967-4.4098-25.1712-.9293-35.7307,6.3092-4.2606-5.4972-6.5635-12.3182-5.8595-20.2252-6.2737,5.3683-10.3937,13.1543-12.1152,21.6001-11.0225-2.6912-22.3875-4.7395-33.3161-1.6725,5.5282,1.2695,10.3016,3.4966,14.6853,6.2868C24.6293,36.2047,10.8345,60.4534,10.8345,93.5713c0,37.0716,21.8949,66.4287,66.1806,66.4287,47.7689,0,72.1504-28.1126,72.1504-72.6486,0-29.8435-14.5867-55.0421-44.0167-63.306Z" fill="#ae4337"/></svg>