<?xml version="1.0" encoding="UTF-8"?><svg id="questions" xmlns="http://www.w3.org/2000/svg" width="160" height="116.6578" viewBox="0 0 160 116.6578"><g id="questions-2"><path id="question-mark" d="M124.4558,114.9817c2.0809,1.404,4.2091,1.9262,6.3855,1.5656,2.1745-.3606,3.8682-1.4375,5.079-3.2327,1.2345-1.8306,1.5922-3.7943,1.0759-5.8929-.5173-2.0976-1.8168-3.8494-3.8977-5.2534-2.0819-1.404-4.1933-1.9528-6.3313-1.6464-2.14,.3074-3.8258,1.3754-5.0603,3.2061-1.2109,1.7952-1.5764,3.7677-1.0946,5.9195,.4798,2.1528,1.7617,3.9302,3.8435,5.3342m4.55-18.7073l11.0912,7.4811c.5084-.7537,1.2178-1.2661,2.1331-1.538,.9133-.2709,2.2839-.5222,4.1105-.7518,1.742-.1833,3.2317-.4178,4.4711-.7055,1.2375-.2877,2.4986-.8217,3.7824-1.6011,1.2818-.7793,2.4326-1.9232,3.4494-3.4307,2.203-3.2652,2.545-6.7156,1.0286-10.3502-1.5183-3.6346-4.4662-6.9294-8.8447-9.8822-4.1273-2.7844-8.1206-4.3549-11.9789-4.7125-3.8593-.3567-7.4269,.3448-10.701,2.1035l6.351,11.2557c1.3242-.7252,2.7124-1.0808,4.1667-1.067,1.4513,.0138,2.7528,.4079,3.9017,1.1833,1.0404,.7015,1.7508,1.5075,2.1301,2.4159,.3783,.9084,.3025,1.7577-.2296,2.5469-.4118,.6109-1.006,1.0454-1.7814,1.3055-.7764,.2601-1.9035,.5173-3.3814,.7744-2.2957,.3843-4.2012,.8867-5.7175,1.5084-1.5163,.6227-2.8435,1.7774-3.9815,3.4642" fill="#ae4337"/><path id="question-mark-2" d="M85.0383,103.4987c5.4062,1.1498,10.1817,.4611,14.3258-2.07,4.1411-2.5302,6.7097-6.1244,7.7008-10.7877,1.0109-4.7539,.1212-9.0585-2.6622-12.9159-2.7873-3.8563-6.8841-6.3599-12.2892-7.5087-5.4081-1.1498-10.1699-.5291-14.2814,1.8612-4.1145,2.3912-6.6752,5.9619-7.6861,10.7167-.9912,4.6623-.1094,8.9906,2.6474,12.9868,2.7548,3.9972,6.8368,6.5688,12.2449,7.7176m-6.1402-41.9379l28.8082,6.1234c.4158-1.9577,1.4434-3.5893,3.0868-4.8978,1.6415-1.3074,4.2307-2.9489,7.7708-4.9263,3.4031-1.8089,6.2515-3.5174,8.5433-5.1263,2.2898-1.607,4.4239-3.7371,6.4003-6.3865,1.9745-2.6494,3.3804-5.9313,4.213-9.8468,1.803-8.4831-.3448-15.8086-6.4377-21.9774-6.0948-6.1668-14.8292-10.4606-26.2022-12.8774-10.7227-2.2789-20.1684-2.1902-28.3382,.2611-8.1718,2.4543-14.8756,6.8279-20.1083,13.1188l22.2463,17.7378c2.1045-2.5725,4.6465-4.4436,7.625-5.615,2.9745-1.1695,5.955-1.4375,8.9403-.803,2.7026,.5744,4.816,1.6336,6.3412,3.1745,1.5213,1.5429,2.0671,3.3401,1.6306,5.3894-.337,1.5863-1.1912,2.9627-2.5587,4.1332-1.3705,1.1705-3.4593,2.6267-6.2633,4.3687-4.3697,2.678-7.8447,5.2751-10.4271,7.7964-2.5824,2.5203-4.3391,5.9717-5.2702,10.3532" fill="#ae4337"/><path id="question-mark-3" d="M38.5131,83.1481c3.212-.801,5.6012-2.4247,7.1668-4.8751,1.5656-2.4484,2.004-5.0574,1.3134-7.8279-.7045-2.8238-2.3124-4.9076-4.8239-6.2525-2.5114-1.3439-5.3746-1.6158-8.5856-.8158-3.212,.801-5.6121,2.3853-7.1974,4.751-1.5873,2.3666-2.0277,4.9608-1.3242,7.7856,.6907,2.7696,2.3016,4.8682,4.8347,6.2949,2.5312,1.4286,5.4042,1.741,8.6162,.9399m-14.314-20.9606l17.1131-4.2662c-.2907-1.1636-.1655-2.3114,.3754-3.4474,.5399-1.134,1.5035-2.6977,2.8898-4.6909,1.3567-1.8671,2.4415-3.5341,3.2524-5.0022,.8109-1.4661,1.4001-3.1726,1.7686-5.1175,.3665-1.9439,.2621-4.08-.3182-6.4062-1.2562-5.0387-4.3352-8.4181-9.2339-10.1384-4.8997-1.7193-10.7276-1.737-17.4836-.0522-6.3688,1.5873-11.4301,4.1155-15.1839,7.5796-3.7539,3.4662-6.2141,7.5797-7.3787,12.3395l16.6303,3.7066c.4572-1.936,1.3341-3.611,2.6297-5.0229,1.2946-1.4109,2.8277-2.338,4.6012-2.7794,1.605-.401,3.0208-.3852,4.2455,.0434,1.2247,.4316,1.9902,1.2552,2.2937,2.473,.2345,.9419,.136,1.9075-.2926,2.8967-.4306,.9892-1.1725,2.3213-2.2247,3.9952-1.6484,2.5883-2.8376,4.8987-3.5657,6.9333-.7281,2.0346-.7675,4.3539-.1182,6.956" fill="#ae4337"/></g></svg>