<svg viewBox="0 0 32 32" xmlns="http://www.w3.org/2000/svg">
	<path
		d="m21.0298 4.8091c.973-1.0878 2.2746-1.8647 3.795-2.0259-2.4393-.882-5.0342-.1859-7.1461 1.2618-.8521-1.0994-1.3127-2.4636-1.1719-4.045-1.2547 1.0737-2.0787 2.6309-2.423 4.32-2.2045-.5382-4.4775-.9479-6.6632-.3345 1.1056.2539 2.0603.6993 2.9371 1.2574-5.4318 1.998-8.1908 6.8478-8.1908 13.4714 0 7.4143 4.379 13.2857 13.2361 13.2857 9.5538 0 14.4301-5.6225 14.4301-14.5297 0-5.9687-2.9173-11.0084-8.8033-12.6612z"
		fill="#fa7465"
	/>
</svg>
