<svg
	aria-hidden="true"
	style="position: absolute; width: 0; height: 0; overflow: hidden"
	version="1.1"
	xmlns="http://www.w3.org/2000/svg"
	xmlns:xlink="http://www.w3.org/1999/xlink"
>
	<defs>
		<!-- Logo -->
		<symbol id="pomorph" viewbox="0 0 240 57.2989">
			<title>Pomorph</title>
			<g>
				<path
					d="M227.8439,44.1397V25.8468c0-2.4196-1.0619-3.9536-3.0094-3.9536-1.0031,0-2.0062,.4128-2.5377,.9438v21.3028h-12.2149V0h12.2149V16.1097c1.6528-2.3014,4.8979-4.1895,8.5569-4.1895,5.9011,0,9.1462,4.1306,9.1462,10.7396v21.4798h-12.1561Z"
				/>
				<path
					d="M191.4923,44.4937c-.7668,0-2.419-.177-2.9505-.4128v13.218h-12.2149V12.9234l12.2149-.5903-.1177,3.5408c1.7111-2.3014,4.8386-3.9536,8.0254-3.9536,7.8479,0,11.2706,7.0223,11.2706,14.6933,0,10.9171-5.2519,17.8801-16.2279,17.8801Zm-.4716-22.8369c-.9443,0-1.8886,.2952-2.4789,.7673v12.864c.5315,.177,1.2983,.354,1.8886,.354,2.7147,0,4.6028-2.6554,4.6028-7.14,0-4.19-1.2983-6.8453-4.0125-6.8453Z"
				/>
				<path
					d="M173.6122,25.4334c-1.2394-.708-3.1869-1.4753-5.1931-1.4753-1.4164,0-2.7142,.531-3.5408,1.2394v18.9421h-12.2149V12.9234l11.7433-.5903-.2952,6.3732c1.3571-4.3076,4.1306-6.8453,7.494-6.8453,1.1213,0,2.5377,.3545,3.4227,.8261l-1.4159,12.7464Z"
				/>
				<path
					d="M139.8033,12.6016c1.1539-1.2901,2.6975-2.2113,4.5005-2.4025-2.8928-1.0459-5.9702-.2204-8.4747,1.4964-1.0105-1.3038-1.5568-2.9217-1.3898-4.7971-1.488,1.2733-2.4652,3.12-2.8735,5.1232-2.6144-.6383-5.3099-1.1241-7.902-.3967,1.3112,.3011,2.4434,.8293,3.4831,1.4911-6.4415,2.3696-9.7133,8.1209-9.7133,15.9759,0,8.7927,5.1931,15.7557,15.6969,15.7557,11.33,0,17.1128-6.6678,17.1128-17.231,0-7.0784-3.4597-13.055-10.44-15.0151Z"
				/>
				<path
					d="M103.0927,44.1397V25.8468c0-2.4196-1.0622-3.9536-3.0096-3.9536-1.0031,0-2.0653,.4128-2.5963,.885,0,0,.0588,.4128,.0588,1.0619v20.2997h-12.097V25.8468c0-2.4196-1.0622-3.9536-3.0096-3.9536-1.0622,0-2.0062,.4716-2.5372,.9438v21.3028h-12.2152V12.9234l12.2152-.531-.1182,3.9536c1.7704-2.4784,4.8979-4.4258,8.5564-4.4258,4.7209,0,6.9632,2.8912,7.8485,4.6616,2.5965-3.2457,5.9599-4.6616,9.8547-4.6616,5.9599,0,9.2056,4.1306,9.2056,10.7396v21.4798h-12.1561Z"
				/>
				<path
					d="M48.2714,44.8477c-10.5038,0-15.6967-6.963-15.6967-15.7557,0-10.4445,5.7829-17.1717,17.1128-17.1717,10.5038,0,15.6967,7.0223,15.6967,15.6964,0,10.5632-5.7829,17.231-17.1128,17.231Zm.6491-23.9582c-2.1835,0-3.5997,3.0099-3.5997,7.4945s1.2983,7.4945,3.7767,7.4945c2.1835,0,3.4815-3.0099,3.4815-7.4357,0-4.5434-1.1801-7.5533-3.6585-7.5533Z"
				/>
				<path
					d="M15.1654,44.4937c-.767,0-2.4193-.177-2.9503-.4128v13.218H0V12.9234l12.2152-.5903-.1182,3.5408c1.7113-2.3014,4.8389-3.9536,8.0254-3.9536,7.8482,0,11.2709,7.0223,11.2709,14.6933,0,10.9171-5.2519,17.8801-16.2279,17.8801Zm-.4719-22.8369c-.9443,0-1.8883,.2952-2.4784,.7673v12.864c.531,.177,1.298,.354,1.8881,.354,2.7147,0,4.603-2.6554,4.603-7.14,0-4.19-1.2983-6.8453-4.0127-6.8453Z"
				/>
			</g>
		</symbol>
		<!-- Small subdial-->
		<symbol id="icon-small-subdial" viewbox="0 0 72 72">
			<title>Subdial</title>
			<g>
				<path
					d="M36.0003,60.2577c-13.4373,0-24.3692-10.8822-24.3692-24.2578S22.563,11.7426,36.0003,11.7426s24.3692,10.8817,24.3692,24.2573-10.932,24.2578-24.3692,24.2578Zm0-42.9766c-10.3835,0-18.8308,8.3975-18.8308,18.7188s8.4472,18.7194,18.8308,18.7194,18.8308-8.3975,18.8308-18.7194-8.4472-18.7188-18.8308-18.7188Z"
					fill="currentColor"
				/>
				<path
					d="M36,72C16.1497,72,0,55.8505,0,36S16.1497,0,36,0s36,16.1495,36,36-16.1497,36-36,36Zm0-57.4884c-11.9104,0-21.6,9.6396-21.6,21.4884s9.6896,21.4884,21.6,21.4884,21.6-9.6396,21.6-21.4884-9.6896-21.4884-21.6-21.4884Z"
				/>
				<path
					d="M36.0003,48.2121c-6.7338,0-12.2122-5.4784-12.2122-12.2122s5.4784-12.2117,12.2122-12.2117,12.2117,5.4779,12.2117,12.2117-5.4779,12.2122-12.2117,12.2122Zm0-18.8854c-3.68,0-6.6737,2.9937-6.6737,6.6732s2.9937,6.6737,6.6737,6.6737,6.6732-2.9937,6.6732-6.6737-2.9937-6.6732-6.6732-6.6732Z"
					fill="currentColor"
				/>
				<path
					d="M36,45.4426c5.215,0,9.4425-4.2273,9.4425-9.4426s-4.2275-9.4426-9.4425-9.4426-9.4425,4.2273-9.4425,9.4426,4.2275,9.4426,9.4425,9.4426"
				/>
			</g>
		</symbol>
		<!-- Large subdial-->
		<symbol id="icon-large-subdial" viewbox="0 0 132 132">
			<title>Subdial</title>
			<g>
				<path
					d="M66.0001,123.3443c-31.6195,0-57.3443-25.7247-57.3443-57.3443S34.3805,8.6557,66.0001,8.6557s57.3443,25.7247,57.3443,57.3443-25.7247,57.3443-57.3443,57.3443Zm0-103.8689c-25.6539,0-46.5246,20.8707-46.5246,46.5246s20.8707,46.5246,46.5246,46.5246,46.5246-20.8707,46.5246-46.5246-20.8707-46.5246-46.5246-46.5246Z"
					fill="currentColor"
				/>
				<path
					d="M66,132C29.6072,132,0,102.3925,0,66S29.6072,0,66,0s66,29.6075,66,66-29.6072,66-66,66Zm0-117.9344c-28.6367,0-51.9344,23.2977-51.9344,51.9344s23.2977,51.9344,51.9344,51.9344,51.9344-23.2977,51.9344-51.9344S94.6367,14.0656,66,14.0656Z"
				/>
				<path
					d="M66.0001,88.7213c-12.5287,0-22.7213-10.1926-22.7213-22.7213s10.1926-22.7213,22.7213-22.7213,22.7213,10.1926,22.7213,22.7213-10.1926,22.7213-22.7213,22.7213Zm0-34.623c-6.5626,0-11.9016,5.339-11.9016,11.9016s5.339,11.9016,11.9016,11.9016,11.9016-5.339,11.9016-11.9016-5.339-11.9016-11.9016-11.9016Z"
					fill="currentColor"
				/>
				<path
					d="M66,83.3115c9.5608,0,17.3115-7.7507,17.3115-17.3115s-7.7507-17.3115-17.3115-17.3115-17.3115,7.7507-17.3115,17.3115,7.7507,17.3115,17.3115,17.3115"
				/>
			</g>
		</symbol>
		<!-- Settings -->
		<symbol id="icon-settings" viewbox="0 0 32 32">
			<title>Settings</title>
			<path
				d="M32,14.0444c0-1.1733-.96-2.1333-2.1333-2.1333h-1.8618c-1.1733,0-1.4545-.6788-.6248-1.5085l1.3164-1.3164c.8297-.8297,.8297-2.1873,0-3.017l-2.7656-2.7656c-.8297-.8297-2.1873-.8297-3.017,0l-1.3165,1.3165c-.8297,.8297-1.5085,.5485-1.5085-.6248v-1.8619C20.0889,.96,19.1289,0,17.9556,0h-3.9111C12.8711,0,11.9111,.96,11.9111,2.1333v1.8618c0,1.1733-.6788,1.4545-1.5085,.6248l-1.3164-1.3164c-.8297-.8297-2.1873-.8297-3.017,0l-2.7656,2.7656c-.8297,.8297-.8297,2.1873,0,3.017l1.3164,1.3164c.8297,.8297,.5485,1.5085-.6248,1.5085h-1.8618c-1.1733,0-2.1333,.96-2.1333,2.1333v3.9111c0,1.1733,.96,2.1333,2.1333,2.1333h1.8619c1.1733,0,1.4545,.6788,.6248,1.5085l-1.3165,1.3165c-.8297,.8297-.8297,2.1873,0,3.017l2.7656,2.7656c.8297,.8297,2.1873,.8297,3.017,0l1.3164-1.3164c.8297-.8297,1.5085-.5485,1.5085,.6248v1.8617c0,1.1733,.96,2.1333,2.1333,2.1333h3.9111c1.1733,0,2.1333-.96,2.1333-2.1333v-1.8618c0-1.1733,.6788-1.4545,1.5085-.6248l1.3165,1.3165c.8297,.8297,2.1873,.8297,3.017,0l2.7656-2.7656c.8297-.8297,.8297-2.1873,0-3.017l-1.3165-1.3165c-.8297-.8297-.5485-1.5085,.6248-1.5085h1.8619c1.1733,0,2.1333-.96,2.1333-2.1333v-3.9111ZM16,22.1533c-3.3983,0-6.1532-2.7549-6.1532-6.1532s2.7549-6.1532,6.1532-6.1532,6.1532,2.7549,6.1532,6.1532-2.7549,6.1532-6.1532,6.1532Z"
			/>
		</symbol>
		<!-- Sound -->
		<symbol id="icon-sound" viewbox="0 0 32 32">
			<title>Sound</title>
			<g>
				<path
					d="M18.3386,4.7485c0-1.1994-.6939-1.4868-1.542-.6387l-5.4418,5.4418c-.8481,.8481-2.5233,1.542-3.7226,1.542H2.1807c-1.1994,0-2.1807,.9813-2.1807,2.1807v5.4517c0,1.1994,.9813,2.1807,2.1807,2.1807H7.6323c1.1994,0,2.8745,.6939,3.7226,1.542l5.4418,5.4417c.8481,.8481,1.542,.5607,1.542-.6387V4.7485Z"
				/>
				<path
					d="M22.5691,20.2332c-.5355,0-.9697-.4337-.9697-.9697v-6.5275c0-.536,.4342-.9697,.9697-.9697s.9697,.4337,.9697,.9697v6.5275c0,.536-.4342,.9697-.9697,.9697Z"
				/>
				<path
					d="M26.7997,23.0315c-.5355,0-.9697-.4337-.9697-.9697V9.9386c0-.536,.4342-.9697,.9697-.9697s.9697,.4337,.9697,.9697v12.1231c0,.536-.4342,.9697-.9697,.9697Z"
				/>
				<path
					d="M31.0303,25.3137c-.5355,0-.9697-.4337-.9697-.9697V7.6564c0-.536,.4342-.9697,.9697-.9697s.9697,.4337,.9697,.9697V24.344c0,.536-.4342,.9697-.9697,.9697Z"
				/>
			</g>
		</symbol>
		<!-- Sound off -->
		<symbol id="icon-sound-off" viewbox="0 0 32 32">
			<title>Sound off</title>
			<g>
				<path
					d="M18.3386,4.7485c0-1.1994-.6939-1.4868-1.542-.6387l-5.4418,5.4418c-.8481,.8481-2.5233,1.542-3.7226,1.542H2.1807C.9813,11.0935,0,12.0748,0,13.2742v5.4517C0,19.9252,.9813,20.9065,2.1807,20.9065H7.6323c1.1994,0,2.8745,.6939,3.7226,1.542l5.4418,5.4417c.8481,.8481,1.542,.5607,1.542-.6387V4.7485Z"
				/>
				<path
					d="M28.1153,15.9999l3.6006-3.6009c.3788-.3788,.3788-.9924,0-1.3712s-.9924-.3788-1.3712,0l-3.6006,3.6009-3.6006-3.6009c-.3788-.3788-.9924-.3788-1.3712,0s-.3788,.9924,0,1.3712l3.6006,3.6009-3.6006,3.6009c-.3788,.3788-.3788,.9924,0,1.3712,.1894,.1894,.4375,.2841,.6856,.2841s.4962-.0947,.6856-.2841l3.6006-3.6009,3.6006,3.6009c.1894,.1894,.4375,.2841,.6856,.2841s.4962-.0947,.6856-.2841c.3788-.3788,.3788-.9924,0-1.3712l-3.6006-3.6009Z"
				/>
			</g>
		</symbol>
		<!-- Stats -->
		<symbol id="icon-stats" viewbox="0 0 32 32">
			<title>Stats</title>
			<g>
				<rect x="22.127" y="8" width="9.873" height="24" rx="2" ry="2" />
				<rect x="11.4609" width="9.0781" height="32" rx="2" ry="2" />
				<rect y="16" width="9.873" height="16" rx="2" ry="2" />
			</g>
		</symbol>
		<!-- Play -->
		<symbol id="icon-play" viewbox="0 0 32 32">
			<title>Play</title>
			<g>
				<path
					d="M16,0C7.1635,0,0,7.1635,0,16s7.1635,16,16,16,16-7.1635,16-16S24.8365,0,16,0Zm6.6878,16.8488l-9.1105,5.694c-.6666,.4167-1.5314-.0626-1.5314-.8488V10.306c0-.7862,.8648-1.2655,1.5314-.8488l9.1105,5.6941c.6273,.392,.6273,1.3055,0,1.6976Z"
				/>
			</g>
		</symbol>
		<!-- Pause -->
		<symbol id="icon-pause" viewbox="0 0 32 32">
			<title>Pause</title>
			<path
				d="M16,0C7.1635,0,0,7.1635,0,16s7.1635,16,16,16,16-7.1635,16-16S24.8365,0,16,0Zm-2,20.0015c0,1.1038-.8948,1.9985-1.9985,1.9985h-.0029c-1.1038,0-1.9985-.8948-1.9985-1.9985V11.9985c0-1.1038,.8948-1.9985,1.9985-1.9985h.0029c1.1038,0,1.9985,.8948,1.9985,1.9985v8.0029Zm8-.0015c0,1.1046-.8954,2-2,2s-2-.8954-2-2V12c0-1.1046,.8954-2,2-2s2,.8954,2,2v8Z"
			/>
		</symbol>
		<!-- Stop -->
		<symbol id="icon-stop" viewbox="0 0 32 32">
			<title>Stop</title>
			<path
				d="M16,0C7.1635,0,0,7.1635,0,16s7.1635,16,16,16,16-7.1635,16-16S24.8365,0,16,0Zm5,20.0006c0,.5519-.4474,.9994-.9994,.9994H11.9994c-.5519,0-.9994-.4474-.9994-.9994V11.9994c0-.5519,.4474-.9994,.9994-.9994h8.0012c.5519,0,.9994,.4474,.9994,.9994v8.0012Z"
			/>
		</symbol>
		<!-- Reset -->
		<symbol id="icon-reset" viewbox="0 0 32 32">
			<title>Reset</title>
			<path
				d="M31.9688,13.5366L29.1124,1.1589c-.209-.9058-1.3327-1.2281-1.99-.5708l-3.0258,3.0258c-2.5395-1.7399-5.5369-2.6819-8.6822-2.6819-4.1181,0-7.9882,1.6031-10.8992,4.5141C1.6031,8.3577,0,12.2284,0,16.3454s1.6031,7.9882,4.5152,10.8992c2.911,2.9115,6.7812,4.5147,10.8992,4.5147s7.9872-1.6031,10.8982-4.5147c1.0505-1.05,1.0505-2.7529,0-3.8029-1.0505-1.0505-2.7524-1.0505-3.8029,0-3.9122,3.9127-10.2794,3.9122-14.1916-.0005-1.8952-1.8952-2.9394-4.4154-2.9394-7.0958s1.0442-5.2001,2.9394-7.0958c3.2086-3.209,8.0664-3.7805,11.8689-1.7262l-2.5859,2.586c-.6573,.6573-.3351,1.781,.5707,1.99l12.3777,2.8564c.8522,.1966,1.6159-.5671,1.4193-1.4193Z"
			/>
		</symbol>
		<!-- Close -->
		<symbol id="icon-close" viewbox="0 0 32 32">
			<title>Reset</title>
			<path
				d="M29.6047,29.2752H2.3953c-1.8784,0-3.0235-2.0661-2.028-3.659L13.972,3.8488c.9367-1.4987,3.1193-1.4987,4.056,0l13.6047,21.7675c.9955,1.5929-.1496,3.659-2.028,3.659Z"
			/>
		</symbol>
		<!-- hmpxl -->
		<symbol id="hmpxl" viewbox="0 0 32 32">
			<title>Hometown Pixel</title>
			<g id="mark">
				<path
					d="M14.7945,3.1757c-.4305,0-.9091,.6158-1.4349,1.8474-.5265,1.2323-1.0349,2.894-1.5247,4.9867-.4905,2.0933-.8914,4.3712-1.2019,6.8344,1.4828-1.7456,2.7086-3.647,3.6774-5.7042,.9686-2.0568,1.453-3.9221,1.453-5.5965,0-.7653-.0842-1.3509-.2512-1.7579-.1675-.4067-.407-.6098-.7175-.6098Z"
				/>
				<path
					d="M17.0768,0c.4305,.2361,.8125,.5816,1.1439,1.041,.6816,.9449,1.0225,2.1705,1.0225,3.6772,0,2.4161-.7058,4.9211-2.1167,7.5158-1.4114,2.5954-3.7075,5.627-6.8881,9.0947-.0718,1.2439-.1077,2.5235-.1077,3.8386,.7893-2.0326,1.6682-3.6891,2.637-4.9688,.9686-1.2793,1.9249-2.194,2.87-2.7446,.9446-.5498,1.8118-.8249,2.6009-.8249,1.5546,0,2.3319,.7772,2.3319,2.3319,0,.9326-.2633,2.6186-.7891,5.0582-.4547,2.0807-.6818,3.4565-.6818,4.1256,0,.9568,.3465,1.4351,1.0404,1.4351,.4782,0,1.046-.2926,1.7042-.8789,.6575-.5856,1.5361-1.5365,2.6365-2.8519,.287-.3347,.6105-.5025,.9691-.5025,.3102,0,.5558,.1435,.7354,.4305,.1789,.287,.2688,.6818,.2688,1.1839,0,.9568-.2274,1.6986-.6814,2.2246-.9667,1.1137-1.9568,2.0517-2.9691,2.8145h9.1965V0h-14.9232Z"
				/>
				<path
					d="M5.7181,29.9746c0-.7653,.0118-1.3751,.036-1.8298l.0358-2.8698c0-3.6828,.3767-7.5218,1.13-11.5161,.7535-3.994,1.8656-7.3484,3.3365-10.0632,1.0251-1.8914,2.1927-3.1222,3.5024-3.6957H0V32H5.8506c-.0885-.5144-.1326-1.1894-.1326-2.0254Z"
				/>
				<path
					d="M15.6916,22.6918c0-.3821-.1318-.574-.3947-.574-.3111,0-.7533,.4007-1.3274,1.2018-.574,.8018-1.1481,1.86-1.7221,3.1751-.5739,1.3158-1.0404,2.7032-1.3991,4.1618-.1233,.5192-.2977,.9654-.5195,1.3436h4.9925c-.3968-.6653-.5984-1.5294-.5984-2.5994,0-.6695,.167-1.8656,.5023-3.5877,.3105-1.5067,.4665-2.547,.4665-3.1211Z"
				/>
			</g>
		</symbol>
	</defs>
</svg>
